PathFileType	4	(X/Y/Z)	/Users/niels/Desktop/University/Third Semester/Perception and Action/Exam/Gymnastics Motion Tracking/Code for Gym Tracking/Analyzed Data/Webcam_Backflip/id1_6_trajectory_Sports2D/id1_6_trajectory_Sports2D_px_person00.trc
DataRate	CameraRate	NumFrames	NumMarkers	Units	OrigDataRate	OrigDataStartFrame	OrigNumFrames
29.714285714285715	29.714285714285715	8	22	m	29.714285714285715	39	105
Frame#	Time	Hip			RHip			RKnee			RAnkle			RBigToe			RSmallToe			RHeel			LHip			LKnee			LAnkle			LBigToe			LSmallToe			LHeel			Neck			Head			Nose			RShoulder			RElbow			RWrist			LShoulder			LElbow			LWrist		
		X1	Y1	Z1	X2	Y2	Z2	X3	Y3	Z3	X4	Y4	Z4	X5	Y5	Z5	X6	Y6	Z6	X7	Y7	Z7	X8	Y8	Z8	X9	Y9	Z9	X10	Y10	Z10	X11	Y11	Z11	X12	Y12	Z12	X13	Y13	Z13	X14	Y14	Z14	X15	Y15	Z15	X16	Y16	Z16	X17	Y17	Z17	X18	Y18	Z18	X19	Y19	Z19	X20	Y20	Z20	X21	Y21	Z21	X22	Y22	Z22
39	1.3125	1.0107033865468653	-0.7073935027222372	0.0	0.9958305140734588	-0.709406506460678	0.0	1.0635879264048738	-0.8020731138612197	0.0	0.9843695396653146	-0.8913607809855576	0.0	1.0142627433941713	-0.935950707839038	0.0	0.9987559680726381	-0.9338099814456275	0.0	0.9614631956473002	-0.8986767099126234	0.0	1.0339404134479087	-0.7087801745199726	0.0	1.0916461043174086	-0.7938188229833014	0.0	1.011096920363346	-0.8714972539762174	0.0	1.0461652833316908	-0.910829097205417	0.0	1.0316692016535987	-0.9066726030595474	0.0	0.9884223874807608	-0.8816838581101909	0.0	1.0977090563921172	-0.5772093886623655	0.0	1.1699215639675222	-0.5414822555810856	0.0	1.1434613027247247	-0.5853781874786399	0.0	1.0782330872317951	-0.5814396296064213	0.0	1.1251138015695918	-0.605171656805923	0.0	1.2117124113721323	-0.5859836142636523	0.0	1.0938523714671748	-0.5778056407596259	0.0	1.1586377429446368	-0.5895851465513848	0.0	1.2120392187007931	-0.5739420888309112	0.0
40	1.346153846153846	1.0140177199449318	-0.6900567791250608	0.0	0.9994373679287789	-0.6930708215367193	0.0	1.0846213837598933	-0.768639617044943	0.0	0.9998040053094926	-0.8513598344821661	0.0	1.0252909499762723	-0.8942931621016601	0.0	1.0102040092200855	-0.8915610086283462	0.0	0.9774477010125706	-0.8576099220970707	0.0	1.038177393900434	-0.6915428746734655	0.0	1.106336757411247	-0.7651897544349511	0.0	1.018404559476087	-0.8365644685881901	0.0	1.0469376492764448	-0.8758633375822881	0.0	1.038050965463855	-0.8713500615432822	0.0	0.9952266984345672	-0.8450509308667183	0.0	1.102151948512899	-0.5649038599650478	0.0	1.1731816744080412	-0.5286980558073336	0.0	1.146533734508295	-0.5740665812833228	0.0	1.0788775071706016	-0.5661018206882188	0.0	1.1089051761473767	-0.5961964921733491	0.0	1.1891724076382992	-0.5932030678634276	0.0	1.1014142418549642	-0.5709623488651133	0.0	1.1600530191896639	-0.5920959733503186	0.0	1.2158818544025332	-0.5877237205113834	0.0
41	1.3798076923076923	1.0184476441555022	-0.6690430682486851	0.0	1.0044679940170806	-0.6728902517464298	0.0	1.104301697389398	-0.7348169544086535	0.0	1.0196087291767295	-0.815948332420904	0.0	1.0440476771078582	-0.8574458376162403	0.0	1.029463445911347	-0.8548518382590269	0.0	0.9984688365970257	-0.8221074203486938	0.0	1.0426704645893954	-0.6705619948805436	0.0	1.1210609110209389	-0.7352842471090356	0.0	1.0310986717468553	-0.8049174704115092	0.0	1.0565316602235335	-0.8427244441945195	0.0	1.0505678684454072	-0.8380336087384238	0.0	1.0081990159636662	-0.812494587501547	0.0	1.1080554291225717	-0.5481128780166805	0.0	1.1784587891417115	-0.5111503228105831	0.0	1.1518907889765335	-0.5576088635442448	0.0	1.0812546740745923	-0.5472995498849339	0.0	1.0936769505778583	-0.5849423501453629	0.0	1.1642621477014747	-0.6003108063484245	0.0	1.1103308517589905	-0.559563992136039	0.0	1.1604193783917365	-0.59030707692652	0.0	1.2192251433400312	-0.5981289176502738	0.0
42	1.4134615384615383	1.0241804464206796	-0.6480212419914929	0.0	1.0110408370437682	-0.6522842462251215	0.0	1.1207067330560385	-0.7064867535760967	0.0	1.0421022824684434	-0.7913691848823766	0.0	1.0690124947138522	-0.8307925860198307	0.0	1.0548752367879246	-0.82905663109606	0.0	1.0226990060401737	-0.7986814899688949	0.0	1.047556399587196	-0.649450012875745	0.0	1.1342315206738696	-0.7094590149101788	0.0	1.0482566905869928	-0.7826772282072364	0.0	1.0746801485386734	-0.8181717647330747	0.0	1.0691648786663617	-0.8136465463546374	0.0	1.0261445627127848	-0.7901913509593833	0.0	1.1144626991171094	-0.5288842676889701	0.0	1.184455310279964	-0.49069493450714924	0.0	1.1585393804177748	-0.5377738372087787	0.0	1.0847480274278822	-0.5270993092794733	0.0	1.0803040140254927	-0.5713879454341217	0.0	1.1384128908440003	-0.6036556904852838	0.0	1.1187485210865704	-0.5452054003447726	0.0	1.1596439476459823	-0.5848797214230278	0.0	1.221301887681339	-0.6034086101695173	0.0
43	1.4471153846153846	1.031494411608633	-0.6295777836759268	0.0	1.019216996113818	-0.633736882529949	0.0	1.133140638899507	-0.6873085936929804	0.0	1.0651413696179883	-0.7802031397907906	0.0	1.0972095468424687	-0.8162784744801532	0.0	1.0834780984305912	-0.8159635357481706	0.0	1.0477591033584654	-0.7896859775421129	0.0	1.053393293721758	-0.6308189401584844	0.0	1.1448189312250876	-0.691224401504855	0.0	1.0680698409875755	-0.7727556399213731	0.0	1.0988280129205483	-0.80548955286341	0.0	1.0925207572366908	-0.8014070488772097	0.0	1.0471570590008512	-0.7810422611712206	0.0	1.1205263035992077	-0.50905632820826	0.0	1.1900520783989241	-0.46906662201552696	0.0	1.1652850570024589	-0.5164639189931651	0.0	1.0886151343080546	-0.5071756683002941	0.0	1.0690734310700016	-0.5560167097301827	0.0	1.1132414827987938	-0.6016454114805303	0.0	1.1256202136315814	-0.5293493869631307	0.0	1.1584760291383798	-0.5768746551202342	0.0	1.2223946419220861	-0.603050435759492	0.0
44	1.4807692307692306	1.0406437451710302	-0.6151693028974506	0.0	1.0290461432135243	-0.6187546342667753	0.0	1.1419099536635464	-0.6784177929597506	0.0	1.0865325927890395	-0.7814607421537981	0.0	1.124992513937438	-0.8129986161937579	0.0	1.1116538219246568	-0.814412985991963	0.0	1.0711587759932075	-0.7935861028613871	0.0	1.0609078832724645	-0.6161753365308512	0.0	1.1525310124125416	-0.681828171401899	0.0	1.0881646592300362	-0.7745374285450952	0.0	1.1250705034188877	-0.8043519709436305	0.0	1.1179614214243654	-0.8007519639549183	0.0	1.0687807975832775	-0.7842514337065845	0.0	1.125602295107134	-0.4901452200480706	0.0	1.194405784068113	-0.4476581488429391	0.0	1.171098655536265	-0.49537467675245345	0.0	1.0921605070786373	-0.4888536463057432	0.0	1.05991096939986	-0.5398495326912438	0.0	1.0899678436464122	-0.594617603771733	0.0	1.1307439846243965	-0.513417489021723	0.0	1.1577626963287067	-0.5675928867408973	0.0	1.2233272529461905	-0.5977715382400811	0.0
45	1.5144230769230769	1.0516338260480604	-0.6053200082096372	0.0	1.0404670736930999	-0.6080111064742966	0.0	1.1477060787229207	-0.6787101133986946	0.0	1.1044438790286453	-0.7917137614081443	0.0	1.14901007629002	-0.8182752313796072	0.0	1.1360294785138239	-0.8214328226548088	0.0	1.0907605550579222	-0.8063541088016483	0.0	1.0705098961643753	-0.606069581687565	0.0	1.157703971307609	-0.6805727611950174	0.0	1.1060979395042454	-0.7849038034276781	0.0	1.1492779062562084	-0.8119479324876148	0.0	1.141900798601744	-0.8086723753076698	0.0	1.0882972843427177	-0.7962724303758387	0.0	1.1293051240308356	-0.4733649579366345	0.0	1.19693296726646	-0.4275847076960893	0.0	1.1753705622495332	-0.4759111453799479	0.0	1.094971103316929	-0.4731863832337017	0.0	1.052722554985925	-0.5243564501061398	0.0	1.069344540426438	-0.5841504421157477	0.0	1.1343434432057773	-0.4986983370800471	0.0	1.1580115751184403	-0.5583736658010802	0.0	1.224857134556494	-0.5891508778312357	0.0
46	1.548076923076923	1.0640866757319738	-0.5998285398178212	0.0	1.0532221522172567	-0.6015091542820757	0.0	1.15118161580458	-0.6856333953843552	0.0	1.1177817035404358	-0.8067260248223923	0.0	1.1670754838215984	-0.828778082509084	0.0	1.154396010271539	-0.8334329676887002	0.0	1.1052337050294285	-0.8233625309328549	0.0	1.0819320667221906	-0.6003145189909564	0.0	1.1609451088182239	-0.6855524674237636	0.0	1.1200565244801868	-0.7998941531142785	0.0	1.1683228840390991	-0.8245521075329534	0.0	1.1610748792974144	-0.8214083829083914	0.0	1.1034728062493597	-0.812738922872871	0.0	1.131541551933473	-0.45963879032463323	0.0	1.197300296746149	-0.4098421750660936	0.0	1.177897390030126	-0.45918042060905645	0.0	1.0970265561952648	-0.46093876085281865	0.0	1.0476357777017422	-0.5111156755706117	0.0	1.051817801545257	-0.572370824046016	0.0	1.1367439784770226	-0.4862361238081343	0.0	1.159322324554604	-0.550362163477894	0.0	1.2273688380907468	-0.5791017732893219	0.0
